<mxfile host="app.diagrams.net" modified="2024-03-12T05:37:02.376Z" agent="Mozilla/5.0 (X11; Ubuntu; Linux x86_64; rv:123.0) Gecko/20100101 Firefox/123.0" etag="ZmJeAvErs51yFzSZ4kno" version="24.0.5" type="device">
  <diagram id="R2lEEEUBdFMjLlhIrx00" name="Page-1">
    <mxGraphModel dx="2284" dy="795" grid="0" gridSize="10" guides="1" tooltips="1" connect="1" arrows="1" fold="1" page="1" pageScale="1" pageWidth="850" pageHeight="1100" math="0" shadow="0" extFonts="Permanent Marker^https://fonts.googleapis.com/css?family=Permanent+Marker">
      <root>
        <mxCell id="0" />
        <mxCell id="1" parent="0" />
        <mxCell id="weiZbGKPLra64Cymewj_-1" value="Libro" style="whiteSpace=wrap;html=1;align=center;" parent="1" vertex="1">
          <mxGeometry x="170" y="130" width="100" height="40" as="geometry" />
        </mxCell>
        <mxCell id="weiZbGKPLra64Cymewj_-2" value="Titulo" style="ellipse;whiteSpace=wrap;html=1;align=center;" parent="1" vertex="1">
          <mxGeometry x="100" y="205" width="100" height="40" as="geometry" />
        </mxCell>
        <mxCell id="weiZbGKPLra64Cymewj_-4" value="AÃ±o de publicacion" style="ellipse;whiteSpace=wrap;html=1;align=center;" parent="1" vertex="1">
          <mxGeometry x="305" y="100" width="110" height="40" as="geometry" />
        </mxCell>
        <mxCell id="weiZbGKPLra64Cymewj_-5" value="ISBN" style="ellipse;whiteSpace=wrap;html=1;align=center;" parent="1" vertex="1">
          <mxGeometry x="225" y="50" width="100" height="40" as="geometry" />
        </mxCell>
        <mxCell id="weiZbGKPLra64Cymewj_-6" value="lugar estante" style="ellipse;whiteSpace=wrap;html=1;align=center;" parent="1" vertex="1">
          <mxGeometry x="90" y="60" width="100" height="40" as="geometry" />
        </mxCell>
        <mxCell id="weiZbGKPLra64Cymewj_-7" value="Autor" style="ellipse;whiteSpace=wrap;html=1;align=center;" parent="1" vertex="1">
          <mxGeometry x="40" y="170" width="100" height="40" as="geometry" />
        </mxCell>
        <mxCell id="weiZbGKPLra64Cymewj_-8" value="Numero de paginas" style="ellipse;whiteSpace=wrap;html=1;align=center;" parent="1" vertex="1">
          <mxGeometry x="325" y="30" width="100" height="40" as="geometry" />
        </mxCell>
        <mxCell id="weiZbGKPLra64Cymewj_-9" value="" style="endArrow=none;html=1;rounded=0;entryX=0.5;entryY=1;entryDx=0;entryDy=0;exitX=0.324;exitY=-0.005;exitDx=0;exitDy=0;exitPerimeter=0;" parent="1" source="weiZbGKPLra64Cymewj_-1" target="weiZbGKPLra64Cymewj_-34" edge="1">
          <mxGeometry width="50" height="50" relative="1" as="geometry">
            <mxPoint x="150" y="160" as="sourcePoint" />
            <mxPoint x="220" y="110" as="targetPoint" />
          </mxGeometry>
        </mxCell>
        <mxCell id="weiZbGKPLra64Cymewj_-11" value="" style="endArrow=none;html=1;rounded=0;entryX=0.5;entryY=1;entryDx=0;entryDy=0;exitX=0;exitY=0;exitDx=0;exitDy=0;" parent="1" source="weiZbGKPLra64Cymewj_-1" target="weiZbGKPLra64Cymewj_-6" edge="1">
          <mxGeometry width="50" height="50" relative="1" as="geometry">
            <mxPoint x="110" y="185" as="sourcePoint" />
            <mxPoint x="160" y="135" as="targetPoint" />
          </mxGeometry>
        </mxCell>
        <mxCell id="weiZbGKPLra64Cymewj_-13" value="" style="endArrow=none;html=1;rounded=0;exitX=1;exitY=0;exitDx=0;exitDy=0;entryX=0;entryY=0.75;entryDx=0;entryDy=0;" parent="1" source="weiZbGKPLra64Cymewj_-7" target="weiZbGKPLra64Cymewj_-1" edge="1">
          <mxGeometry width="50" height="50" relative="1" as="geometry">
            <mxPoint x="165" y="230" as="sourcePoint" />
            <mxPoint x="215" y="180" as="targetPoint" />
          </mxGeometry>
        </mxCell>
        <mxCell id="weiZbGKPLra64Cymewj_-14" value="" style="endArrow=none;html=1;rounded=0;exitX=0.5;exitY=0;exitDx=0;exitDy=0;entryX=0.25;entryY=1;entryDx=0;entryDy=0;" parent="1" source="weiZbGKPLra64Cymewj_-2" target="weiZbGKPLra64Cymewj_-1" edge="1">
          <mxGeometry width="50" height="50" relative="1" as="geometry">
            <mxPoint x="140" y="310" as="sourcePoint" />
            <mxPoint x="190" y="260" as="targetPoint" />
          </mxGeometry>
        </mxCell>
        <mxCell id="weiZbGKPLra64Cymewj_-16" value="Editorial&amp;nbsp;" style="whiteSpace=wrap;html=1;align=center;" parent="1" vertex="1">
          <mxGeometry x="770" y="140" width="100" height="40" as="geometry" />
        </mxCell>
        <mxCell id="weiZbGKPLra64Cymewj_-17" value="Nombre" style="ellipse;whiteSpace=wrap;html=1;align=center;" parent="1" vertex="1">
          <mxGeometry x="770" y="80" width="100" height="40" as="geometry" />
        </mxCell>
        <mxCell id="weiZbGKPLra64Cymewj_-18" value="Ubicacion" style="ellipse;whiteSpace=wrap;html=1;align=center;" parent="1" vertex="1">
          <mxGeometry x="900" y="140" width="100" height="40" as="geometry" />
        </mxCell>
        <mxCell id="weiZbGKPLra64Cymewj_-20" value="" style="endArrow=none;html=1;rounded=0;exitX=0;exitY=0.5;exitDx=0;exitDy=0;entryX=1;entryY=0.5;entryDx=0;entryDy=0;" parent="1" source="weiZbGKPLra64Cymewj_-18" target="weiZbGKPLra64Cymewj_-16" edge="1">
          <mxGeometry width="50" height="50" relative="1" as="geometry">
            <mxPoint x="880" y="210" as="sourcePoint" />
            <mxPoint x="790" y="100" as="targetPoint" />
          </mxGeometry>
        </mxCell>
        <mxCell id="weiZbGKPLra64Cymewj_-22" value="Lector" style="whiteSpace=wrap;html=1;align=center;" parent="1" vertex="1">
          <mxGeometry x="-110" y="315" width="100" height="40" as="geometry" />
        </mxCell>
        <mxCell id="weiZbGKPLra64Cymewj_-23" value="Fecha de nacimiento" style="ellipse;whiteSpace=wrap;html=1;align=center;" parent="1" vertex="1">
          <mxGeometry y="275" width="100" height="40" as="geometry" />
        </mxCell>
        <mxCell id="weiZbGKPLra64Cymewj_-24" value="Direccion" style="ellipse;whiteSpace=wrap;html=1;align=center;" parent="1" vertex="1">
          <mxGeometry x="-110" y="245" width="100" height="40" as="geometry" />
        </mxCell>
        <mxCell id="weiZbGKPLra64Cymewj_-25" value="Nombre" style="ellipse;whiteSpace=wrap;html=1;align=center;" parent="1" vertex="1">
          <mxGeometry x="-230" y="290" width="100" height="40" as="geometry" />
        </mxCell>
        <mxCell id="weiZbGKPLra64Cymewj_-26" value="Id_Lector" style="ellipse;whiteSpace=wrap;html=1;align=center;" parent="1" vertex="1">
          <mxGeometry x="-220" y="340" width="100" height="40" as="geometry" />
        </mxCell>
        <mxCell id="weiZbGKPLra64Cymewj_-27" value="" style="endArrow=none;html=1;rounded=0;entryX=0.5;entryY=1;entryDx=0;entryDy=0;exitX=0.5;exitY=0;exitDx=0;exitDy=0;" parent="1" source="weiZbGKPLra64Cymewj_-22" target="weiZbGKPLra64Cymewj_-24" edge="1">
          <mxGeometry width="50" height="50" relative="1" as="geometry">
            <mxPoint x="-120" y="325" as="sourcePoint" />
            <mxPoint x="-70" y="275" as="targetPoint" />
          </mxGeometry>
        </mxCell>
        <mxCell id="weiZbGKPLra64Cymewj_-28" value="" style="endArrow=none;html=1;rounded=0;exitX=0;exitY=0.5;exitDx=0;exitDy=0;entryX=0.75;entryY=0;entryDx=0;entryDy=0;" parent="1" source="weiZbGKPLra64Cymewj_-23" target="weiZbGKPLra64Cymewj_-22" edge="1">
          <mxGeometry width="50" height="50" relative="1" as="geometry">
            <mxPoint x="50" y="275" as="sourcePoint" />
            <mxPoint x="100" y="225" as="targetPoint" />
          </mxGeometry>
        </mxCell>
        <mxCell id="weiZbGKPLra64Cymewj_-29" value="" style="endArrow=none;html=1;rounded=0;exitX=1;exitY=0.5;exitDx=0;exitDy=0;entryX=0;entryY=0.25;entryDx=0;entryDy=0;" parent="1" source="weiZbGKPLra64Cymewj_-25" target="weiZbGKPLra64Cymewj_-22" edge="1">
          <mxGeometry width="50" height="50" relative="1" as="geometry">
            <mxPoint x="50" y="275" as="sourcePoint" />
            <mxPoint x="100" y="225" as="targetPoint" />
          </mxGeometry>
        </mxCell>
        <mxCell id="weiZbGKPLra64Cymewj_-30" value="" style="endArrow=none;html=1;rounded=0;exitX=1;exitY=0.5;exitDx=0;exitDy=0;entryX=0;entryY=1;entryDx=0;entryDy=0;" parent="1" source="weiZbGKPLra64Cymewj_-26" target="weiZbGKPLra64Cymewj_-22" edge="1">
          <mxGeometry width="50" height="50" relative="1" as="geometry">
            <mxPoint x="-90" y="365" as="sourcePoint" />
            <mxPoint x="-40" y="315" as="targetPoint" />
          </mxGeometry>
        </mxCell>
        <mxCell id="weiZbGKPLra64Cymewj_-31" value="Biblioteca" style="whiteSpace=wrap;html=1;align=center;" parent="1" vertex="1">
          <mxGeometry x="170" y="360" width="100" height="40" as="geometry" />
        </mxCell>
        <mxCell id="weiZbGKPLra64Cymewj_-34" value="Numero de copia" style="ellipse;whiteSpace=wrap;html=1;align=center;fontStyle=4;" parent="1" vertex="1">
          <mxGeometry x="150" y="10" width="100" height="40" as="geometry" />
        </mxCell>
        <mxCell id="weiZbGKPLra64Cymewj_-35" value="Tener" style="shape=rhombus;perimeter=rhombusPerimeter;whiteSpace=wrap;html=1;align=center;" parent="1" vertex="1">
          <mxGeometry x="160" y="240" width="120" height="60" as="geometry" />
        </mxCell>
        <mxCell id="weiZbGKPLra64Cymewj_-36" value="" style="endArrow=none;html=1;rounded=0;entryX=0.5;entryY=1;entryDx=0;entryDy=0;exitX=0.5;exitY=0;exitDx=0;exitDy=0;" parent="1" source="weiZbGKPLra64Cymewj_-31" target="weiZbGKPLra64Cymewj_-35" edge="1">
          <mxGeometry width="50" height="50" relative="1" as="geometry">
            <mxPoint x="228" y="360" as="sourcePoint" />
            <mxPoint x="510" y="310" as="targetPoint" />
          </mxGeometry>
        </mxCell>
        <mxCell id="weiZbGKPLra64Cymewj_-47" value="" style="endArrow=classic;html=1;rounded=0;shape=link;" parent="1" edge="1">
          <mxGeometry width="50" height="50" relative="1" as="geometry">
            <mxPoint x="220" y="240" as="sourcePoint" />
            <mxPoint x="220" y="190" as="targetPoint" />
          </mxGeometry>
        </mxCell>
        <mxCell id="weiZbGKPLra64Cymewj_-48" value="" style="triangle;whiteSpace=wrap;html=1;rotation=-90;fillColor=#130101;" parent="1" vertex="1">
          <mxGeometry x="210" y="170" width="20" height="30" as="geometry" />
        </mxCell>
        <mxCell id="weiZbGKPLra64Cymewj_-50" value="ISBN" style="ellipse;whiteSpace=wrap;html=1;align=center;" parent="1" vertex="1">
          <mxGeometry x="-10" y="450" width="100" height="40" as="geometry" />
        </mxCell>
        <mxCell id="weiZbGKPLra64Cymewj_-51" value="" style="endArrow=none;html=1;rounded=0;exitX=0.5;exitY=0;exitDx=0;exitDy=0;entryX=0.25;entryY=1;entryDx=0;entryDy=0;" parent="1" source="weiZbGKPLra64Cymewj_-50" target="weiZbGKPLra64Cymewj_-31" edge="1">
          <mxGeometry width="50" height="50" relative="1" as="geometry">
            <mxPoint x="130" y="370" as="sourcePoint" />
            <mxPoint x="180" y="320" as="targetPoint" />
          </mxGeometry>
        </mxCell>
        <mxCell id="weiZbGKPLra64Cymewj_-52" value="Publicar" style="shape=rhombus;perimeter=rhombusPerimeter;whiteSpace=wrap;html=1;align=center;" parent="1" vertex="1">
          <mxGeometry x="600" y="130" width="120" height="60" as="geometry" />
        </mxCell>
        <mxCell id="weiZbGKPLra64Cymewj_-53" value="" style="endArrow=none;html=1;rounded=0;exitX=0.5;exitY=0;exitDx=0;exitDy=0;entryX=0.5;entryY=1;entryDx=0;entryDy=0;" parent="1" source="weiZbGKPLra64Cymewj_-1" target="weiZbGKPLra64Cymewj_-5" edge="1">
          <mxGeometry width="50" height="50" relative="1" as="geometry">
            <mxPoint x="275" y="100" as="sourcePoint" />
            <mxPoint x="325" y="50" as="targetPoint" />
          </mxGeometry>
        </mxCell>
        <mxCell id="weiZbGKPLra64Cymewj_-54" value="" style="endArrow=none;html=1;rounded=0;exitX=0.75;exitY=0;exitDx=0;exitDy=0;entryX=0.5;entryY=1;entryDx=0;entryDy=0;" parent="1" source="weiZbGKPLra64Cymewj_-1" target="weiZbGKPLra64Cymewj_-8" edge="1">
          <mxGeometry width="50" height="50" relative="1" as="geometry">
            <mxPoint x="440" y="190" as="sourcePoint" />
            <mxPoint x="490" y="140" as="targetPoint" />
          </mxGeometry>
        </mxCell>
        <mxCell id="weiZbGKPLra64Cymewj_-55" value="" style="endArrow=none;html=1;rounded=0;exitX=1;exitY=0;exitDx=0;exitDy=0;entryX=0;entryY=0.5;entryDx=0;entryDy=0;" parent="1" source="weiZbGKPLra64Cymewj_-1" target="weiZbGKPLra64Cymewj_-4" edge="1">
          <mxGeometry width="50" height="50" relative="1" as="geometry">
            <mxPoint x="440" y="190" as="sourcePoint" />
            <mxPoint x="490" y="140" as="targetPoint" />
          </mxGeometry>
        </mxCell>
        <mxCell id="weiZbGKPLra64Cymewj_-57" value="" style="endArrow=none;html=1;rounded=0;entryX=0;entryY=0.5;entryDx=0;entryDy=0;exitX=1;exitY=0.5;exitDx=0;exitDy=0;" parent="1" source="weiZbGKPLra64Cymewj_-52" target="weiZbGKPLra64Cymewj_-16" edge="1">
          <mxGeometry width="50" height="50" relative="1" as="geometry">
            <mxPoint x="625" y="180" as="sourcePoint" />
            <mxPoint x="675" y="130" as="targetPoint" />
          </mxGeometry>
        </mxCell>
        <mxCell id="weiZbGKPLra64Cymewj_-59" value="" style="endArrow=none;html=1;rounded=0;shape=link;exitX=1;exitY=0.75;exitDx=0;exitDy=0;entryX=0;entryY=0.5;entryDx=0;entryDy=0;" parent="1" source="weiZbGKPLra64Cymewj_-1" target="weiZbGKPLra64Cymewj_-52" edge="1">
          <mxGeometry width="50" height="50" relative="1" as="geometry">
            <mxPoint x="350" y="230" as="sourcePoint" />
            <mxPoint x="420" y="160" as="targetPoint" />
          </mxGeometry>
        </mxCell>
        <mxCell id="weiZbGKPLra64Cymewj_-60" value="" style="endArrow=none;html=1;rounded=0;entryX=0.5;entryY=1;entryDx=0;entryDy=0;exitX=0.5;exitY=0;exitDx=0;exitDy=0;" parent="1" source="weiZbGKPLra64Cymewj_-16" target="weiZbGKPLra64Cymewj_-17" edge="1">
          <mxGeometry width="50" height="50" relative="1" as="geometry">
            <mxPoint x="770" y="175" as="sourcePoint" />
            <mxPoint x="820" y="125" as="targetPoint" />
          </mxGeometry>
        </mxCell>
        <mxCell id="weiZbGKPLra64Cymewj_-63" value="" style="endArrow=none;html=1;rounded=0;entryX=0.5;entryY=1;entryDx=0;entryDy=0;exitX=0.5;exitY=0;exitDx=0;exitDy=0;" parent="1" source="weiZbGKPLra64Cymewj_-70" target="weiZbGKPLra64Cymewj_-52" edge="1">
          <mxGeometry width="50" height="50" relative="1" as="geometry">
            <mxPoint x="660" y="230" as="sourcePoint" />
            <mxPoint x="685" y="230" as="targetPoint" />
          </mxGeometry>
        </mxCell>
        <mxCell id="weiZbGKPLra64Cymewj_-64" value="" style="endArrow=none;html=1;rounded=0;exitX=0.5;exitY=0;exitDx=0;exitDy=0;entryX=0.5;entryY=1;entryDx=0;entryDy=0;" parent="1" source="weiZbGKPLra64Cymewj_-52" target="weiZbGKPLra64Cymewj_-65" edge="1">
          <mxGeometry width="50" height="50" relative="1" as="geometry">
            <mxPoint x="640" y="90" as="sourcePoint" />
            <mxPoint x="660" y="90" as="targetPoint" />
          </mxGeometry>
        </mxCell>
        <mxCell id="weiZbGKPLra64Cymewj_-65" value="ISBN" style="ellipse;whiteSpace=wrap;html=1;align=center;" parent="1" vertex="1">
          <mxGeometry x="610" y="50" width="100" height="40" as="geometry" />
        </mxCell>
        <mxCell id="weiZbGKPLra64Cymewj_-66" value="" style="endArrow=none;html=1;rounded=0;entryX=0.5;entryY=1;entryDx=0;entryDy=0;exitX=0.5;exitY=0;exitDx=0;exitDy=0;" parent="1" source="weiZbGKPLra64Cymewj_-68" target="weiZbGKPLra64Cymewj_-16" edge="1">
          <mxGeometry width="50" height="50" relative="1" as="geometry">
            <mxPoint x="820" y="210" as="sourcePoint" />
            <mxPoint x="860" y="220" as="targetPoint" />
          </mxGeometry>
        </mxCell>
        <mxCell id="weiZbGKPLra64Cymewj_-68" value="Id_Editorial" style="ellipse;whiteSpace=wrap;html=1;align=center;fontStyle=4;" parent="1" vertex="1">
          <mxGeometry x="770" y="210" width="100" height="40" as="geometry" />
        </mxCell>
        <mxCell id="weiZbGKPLra64Cymewj_-70" value="Id_editorial" style="ellipse;whiteSpace=wrap;html=1;align=center;" parent="1" vertex="1">
          <mxGeometry x="610" y="230" width="100" height="40" as="geometry" />
        </mxCell>
        <mxCell id="weiZbGKPLra64Cymewj_-71" value="Categoria" style="whiteSpace=wrap;html=1;align=center;" parent="1" vertex="1">
          <mxGeometry x="350" y="310" width="100" height="40" as="geometry" />
        </mxCell>
        <mxCell id="weiZbGKPLra64Cymewj_-74" value="Nombre" style="ellipse;whiteSpace=wrap;html=1;align=center;" parent="1" vertex="1">
          <mxGeometry x="315" y="370" width="100" height="40" as="geometry" />
        </mxCell>
        <mxCell id="weiZbGKPLra64Cymewj_-75" value="" style="endArrow=none;html=1;rounded=0;entryX=0.5;entryY=0;entryDx=0;entryDy=0;exitX=0.5;exitY=1;exitDx=0;exitDy=0;" parent="1" source="weiZbGKPLra64Cymewj_-71" target="weiZbGKPLra64Cymewj_-74" edge="1">
          <mxGeometry width="50" height="50" relative="1" as="geometry">
            <mxPoint x="190" y="290" as="sourcePoint" />
            <mxPoint x="240" y="240" as="targetPoint" />
          </mxGeometry>
        </mxCell>
        <mxCell id="weiZbGKPLra64Cymewj_-76" value="Pertenecer" style="shape=rhombus;perimeter=rhombusPerimeter;whiteSpace=wrap;html=1;align=center;" parent="1" vertex="1">
          <mxGeometry x="340" y="200" width="120" height="60" as="geometry" />
        </mxCell>
        <mxCell id="weiZbGKPLra64Cymewj_-77" value="" style="endArrow=none;html=1;rounded=0;entryX=0.75;entryY=1;entryDx=0;entryDy=0;exitX=0;exitY=0.5;exitDx=0;exitDy=0;" parent="1" source="weiZbGKPLra64Cymewj_-76" target="weiZbGKPLra64Cymewj_-1" edge="1">
          <mxGeometry width="50" height="50" relative="1" as="geometry">
            <mxPoint x="310" y="340" as="sourcePoint" />
            <mxPoint x="360" y="290" as="targetPoint" />
          </mxGeometry>
        </mxCell>
        <mxCell id="weiZbGKPLra64Cymewj_-78" value="" style="endArrow=none;html=1;rounded=0;entryX=0.5;entryY=1;entryDx=0;entryDy=0;exitX=0.5;exitY=0;exitDx=0;exitDy=0;" parent="1" source="weiZbGKPLra64Cymewj_-71" target="weiZbGKPLra64Cymewj_-76" edge="1">
          <mxGeometry width="50" height="50" relative="1" as="geometry">
            <mxPoint x="570" y="340" as="sourcePoint" />
            <mxPoint x="620" y="290" as="targetPoint" />
          </mxGeometry>
        </mxCell>
        <mxCell id="weiZbGKPLra64Cymewj_-80" value="SubCategoria" style="shape=rhombus;perimeter=rhombusPerimeter;whiteSpace=wrap;html=1;align=center;" parent="1" vertex="1">
          <mxGeometry x="480" y="270" width="120" height="60" as="geometry" />
        </mxCell>
        <mxCell id="weiZbGKPLra64Cymewj_-83" value="" style="endArrow=classic;html=1;rounded=0;exitX=0.5;exitY=0;exitDx=0;exitDy=0;entryX=0.75;entryY=0;entryDx=0;entryDy=0;" parent="1" source="weiZbGKPLra64Cymewj_-80" target="weiZbGKPLra64Cymewj_-71" edge="1">
          <mxGeometry width="50" height="50" relative="1" as="geometry">
            <mxPoint x="440" y="330" as="sourcePoint" />
            <mxPoint x="490" y="280" as="targetPoint" />
            <Array as="points">
              <mxPoint x="540" y="260" />
              <mxPoint x="425" y="260" />
            </Array>
          </mxGeometry>
        </mxCell>
        <mxCell id="weiZbGKPLra64Cymewj_-84" value="" style="endArrow=none;html=1;rounded=0;exitX=1;exitY=1;exitDx=0;exitDy=0;entryX=0.5;entryY=1;entryDx=0;entryDy=0;" parent="1" source="weiZbGKPLra64Cymewj_-71" target="weiZbGKPLra64Cymewj_-80" edge="1">
          <mxGeometry width="50" height="50" relative="1" as="geometry">
            <mxPoint x="500" y="420" as="sourcePoint" />
            <mxPoint x="540" y="340" as="targetPoint" />
            <Array as="points">
              <mxPoint x="540" y="350" />
            </Array>
          </mxGeometry>
        </mxCell>
        <mxCell id="weiZbGKPLra64Cymewj_-85" value="registrar" style="shape=rhombus;perimeter=rhombusPerimeter;whiteSpace=wrap;html=1;align=center;" parent="1" vertex="1">
          <mxGeometry x="-10" y="360" width="120" height="60" as="geometry" />
        </mxCell>
        <mxCell id="weiZbGKPLra64Cymewj_-86" value="" style="endArrow=none;html=1;rounded=0;exitX=1;exitY=0.5;exitDx=0;exitDy=0;entryX=0;entryY=0.75;entryDx=0;entryDy=0;" parent="1" source="weiZbGKPLra64Cymewj_-85" target="weiZbGKPLra64Cymewj_-31" edge="1">
          <mxGeometry width="50" height="50" relative="1" as="geometry">
            <mxPoint x="190" y="370" as="sourcePoint" />
            <mxPoint x="240" y="320" as="targetPoint" />
          </mxGeometry>
        </mxCell>
        <mxCell id="weiZbGKPLra64Cymewj_-88" value="&lt;u&gt;Id_Lector&lt;/u&gt;" style="ellipse;whiteSpace=wrap;html=1;align=center;" parent="1" vertex="1">
          <mxGeometry x="240" y="430" width="100" height="40" as="geometry" />
        </mxCell>
        <mxCell id="weiZbGKPLra64Cymewj_-89" value="" style="endArrow=none;html=1;rounded=0;entryX=0.75;entryY=1;entryDx=0;entryDy=0;exitX=0.5;exitY=0;exitDx=0;exitDy=0;" parent="1" source="weiZbGKPLra64Cymewj_-88" target="weiZbGKPLra64Cymewj_-31" edge="1">
          <mxGeometry width="50" height="50" relative="1" as="geometry">
            <mxPoint x="190" y="370" as="sourcePoint" />
            <mxPoint x="240" y="320" as="targetPoint" />
          </mxGeometry>
        </mxCell>
        <mxCell id="weiZbGKPLra64Cymewj_-90" value="Prestado" style="whiteSpace=wrap;html=1;align=center;" parent="1" vertex="1">
          <mxGeometry x="-310" y="130" width="100" height="40" as="geometry" />
        </mxCell>
        <mxCell id="weiZbGKPLra64Cymewj_-91" value="Fecha de devolucion" style="ellipse;whiteSpace=wrap;html=1;align=center;" parent="1" vertex="1">
          <mxGeometry x="-310" y="50" width="100" height="40" as="geometry" />
        </mxCell>
        <mxCell id="weiZbGKPLra64Cymewj_-92" value="" style="endArrow=none;html=1;rounded=0;exitX=0.5;exitY=0;exitDx=0;exitDy=0;entryX=0.5;entryY=1;entryDx=0;entryDy=0;" parent="1" source="weiZbGKPLra64Cymewj_-90" target="weiZbGKPLra64Cymewj_-91" edge="1">
          <mxGeometry width="50" height="50" relative="1" as="geometry">
            <mxPoint x="-150" y="130" as="sourcePoint" />
            <mxPoint x="-100" y="80" as="targetPoint" />
          </mxGeometry>
        </mxCell>
        <mxCell id="weiZbGKPLra64Cymewj_-93" value="Prestar" style="shape=rhombus;perimeter=rhombusPerimeter;whiteSpace=wrap;html=1;align=center;" parent="1" vertex="1">
          <mxGeometry x="-150" y="120" width="120" height="60" as="geometry" />
        </mxCell>
        <mxCell id="weiZbGKPLra64Cymewj_-94" value="" style="endArrow=none;html=1;rounded=0;exitX=1;exitY=0.5;exitDx=0;exitDy=0;entryX=0;entryY=0.5;entryDx=0;entryDy=0;shape=link;" parent="1" source="weiZbGKPLra64Cymewj_-90" target="weiZbGKPLra64Cymewj_-93" edge="1">
          <mxGeometry width="50" height="50" relative="1" as="geometry">
            <mxPoint x="-200" y="320" as="sourcePoint" />
            <mxPoint x="-150" y="270" as="targetPoint" />
          </mxGeometry>
        </mxCell>
        <mxCell id="weiZbGKPLra64Cymewj_-95" value="" style="endArrow=classic;html=1;rounded=0;exitX=1;exitY=0.5;exitDx=0;exitDy=0;entryX=0;entryY=0.5;entryDx=0;entryDy=0;" parent="1" source="weiZbGKPLra64Cymewj_-93" target="weiZbGKPLra64Cymewj_-1" edge="1">
          <mxGeometry width="50" height="50" relative="1" as="geometry">
            <mxPoint x="-200" y="320" as="sourcePoint" />
            <mxPoint x="160" y="140" as="targetPoint" />
          </mxGeometry>
        </mxCell>
        <mxCell id="weiZbGKPLra64Cymewj_-96" value="ISBN" style="ellipse;whiteSpace=wrap;html=1;align=center;" parent="1" vertex="1">
          <mxGeometry x="-440" y="130" width="100" height="40" as="geometry" />
        </mxCell>
        <mxCell id="weiZbGKPLra64Cymewj_-97" value="" style="endArrow=none;html=1;rounded=0;exitX=1;exitY=0.5;exitDx=0;exitDy=0;entryX=0;entryY=0.5;entryDx=0;entryDy=0;" parent="1" source="weiZbGKPLra64Cymewj_-96" target="weiZbGKPLra64Cymewj_-90" edge="1">
          <mxGeometry width="50" height="50" relative="1" as="geometry">
            <mxPoint x="-350" y="125" as="sourcePoint" />
            <mxPoint x="-300" y="75" as="targetPoint" />
          </mxGeometry>
        </mxCell>
        <mxCell id="weiZbGKPLra64Cymewj_-98" value="Pedir" style="shape=rhombus;perimeter=rhombusPerimeter;whiteSpace=wrap;html=1;align=center;" parent="1" vertex="1">
          <mxGeometry x="-390" y="260" width="120" height="60" as="geometry" />
        </mxCell>
        <mxCell id="weiZbGKPLra64Cymewj_-99" value="" style="endArrow=none;html=1;rounded=0;entryX=0.5;entryY=1;entryDx=0;entryDy=0;exitX=0.25;exitY=1;exitDx=0;exitDy=0;" parent="1" source="weiZbGKPLra64Cymewj_-22" target="weiZbGKPLra64Cymewj_-98" edge="1">
          <mxGeometry width="50" height="50" relative="1" as="geometry">
            <mxPoint x="-360" y="440" as="sourcePoint" />
            <mxPoint x="-310" y="390" as="targetPoint" />
            <Array as="points">
              <mxPoint x="-85" y="390" />
              <mxPoint x="-330" y="390" />
              <mxPoint x="-330" y="370" />
            </Array>
          </mxGeometry>
        </mxCell>
        <mxCell id="weiZbGKPLra64Cymewj_-100" value="" style="endArrow=classic;html=1;rounded=0;exitX=0.5;exitY=0;exitDx=0;exitDy=0;shape=link;" parent="1" source="weiZbGKPLra64Cymewj_-98" edge="1">
          <mxGeometry width="50" height="50" relative="1" as="geometry">
            <mxPoint x="-355" y="230" as="sourcePoint" />
            <mxPoint x="-260" y="190" as="targetPoint" />
            <Array as="points">
              <mxPoint x="-330" y="210" />
              <mxPoint x="-260" y="210" />
            </Array>
          </mxGeometry>
        </mxCell>
        <mxCell id="weiZbGKPLra64Cymewj_-101" value="" style="endArrow=none;html=1;rounded=0;exitX=0.25;exitY=0;exitDx=0;exitDy=0;" parent="1" source="weiZbGKPLra64Cymewj_-22" target="weiZbGKPLra64Cymewj_-104" edge="1">
          <mxGeometry width="50" height="50" relative="1" as="geometry">
            <mxPoint x="-140" y="275" as="sourcePoint" />
            <mxPoint x="-140" y="270" as="targetPoint" />
          </mxGeometry>
        </mxCell>
        <mxCell id="weiZbGKPLra64Cymewj_-102" value="" style="endArrow=none;html=1;rounded=0;entryX=0;entryY=0;entryDx=0;entryDy=0;exitX=1;exitY=0.5;exitDx=0;exitDy=0;" parent="1" source="weiZbGKPLra64Cymewj_-103" target="weiZbGKPLra64Cymewj_-90" edge="1">
          <mxGeometry width="50" height="50" relative="1" as="geometry">
            <mxPoint x="-360" y="90" as="sourcePoint" />
            <mxPoint x="-340" y="80" as="targetPoint" />
          </mxGeometry>
        </mxCell>
        <mxCell id="weiZbGKPLra64Cymewj_-103" value="Id_Prestamo" style="ellipse;whiteSpace=wrap;html=1;align=center;fontStyle=4;" parent="1" vertex="1">
          <mxGeometry x="-425" y="70" width="100" height="40" as="geometry" />
        </mxCell>
        <mxCell id="weiZbGKPLra64Cymewj_-104" value="&lt;u&gt;Id_Prestamo&lt;/u&gt;" style="ellipse;whiteSpace=wrap;html=1;align=center;" parent="1" vertex="1">
          <mxGeometry x="-220" y="240" width="100" height="40" as="geometry" />
        </mxCell>
        <mxCell id="weiZbGKPLra64Cymewj_-132" value="" style="endArrow=none;html=1;rounded=0;entryX=0.404;entryY=1.005;entryDx=0;entryDy=0;entryPerimeter=0;exitX=0.5;exitY=0;exitDx=0;exitDy=0;" parent="1" target="weiZbGKPLra64Cymewj_-31" edge="1">
          <mxGeometry width="50" height="50" relative="1" as="geometry">
            <mxPoint x="160" y="440" as="sourcePoint" />
            <mxPoint x="250" y="410" as="targetPoint" />
          </mxGeometry>
        </mxCell>
        <mxCell id="9Fltv7OR4iHCxFBWcwns-1" value="" style="endArrow=none;html=1;rounded=0;exitX=0.892;exitY=0.995;exitDx=0;exitDy=0;exitPerimeter=0;entryX=0.067;entryY=0.43;entryDx=0;entryDy=0;entryPerimeter=0;" parent="1" source="weiZbGKPLra64Cymewj_-1" target="weiZbGKPLra64Cymewj_-76" edge="1">
          <mxGeometry width="50" height="50" relative="1" as="geometry">
            <mxPoint x="325" y="215" as="sourcePoint" />
            <mxPoint x="375" y="165" as="targetPoint" />
          </mxGeometry>
        </mxCell>
        <mxCell id="9Fltv7OR4iHCxFBWcwns-2" value="" style="endArrow=none;html=1;rounded=0;" parent="1" edge="1">
          <mxGeometry width="50" height="50" relative="1" as="geometry">
            <mxPoint x="393" y="310" as="sourcePoint" />
            <mxPoint x="393" y="260" as="targetPoint" />
          </mxGeometry>
        </mxCell>
        <mxCell id="9Fltv7OR4iHCxFBWcwns-13" value="" style="shape=link;endArrow=classic;html=1;rounded=0;endWidth=24;exitX=0;exitY=0.5;exitDx=0;exitDy=0;fillColor=#dae8fc;strokeColor=#000000;" parent="1" source="9Fltv7OR4iHCxFBWcwns-17" edge="1">
          <mxGeometry width="50" height="50" relative="1" as="geometry">
            <mxPoint x="-90" y="430" as="sourcePoint" />
            <mxPoint x="-50" y="370" as="targetPoint" />
            <Array as="points" />
          </mxGeometry>
        </mxCell>
        <mxCell id="9Fltv7OR4iHCxFBWcwns-18" value="" style="shape=link;endArrow=classic;html=1;rounded=0;endWidth=24;exitX=0;exitY=0.5;exitDx=0;exitDy=0;fillColor=#dae8fc;strokeColor=#000000;" parent="1" source="weiZbGKPLra64Cymewj_-85" target="9Fltv7OR4iHCxFBWcwns-17" edge="1">
          <mxGeometry width="50" height="50" relative="1" as="geometry">
            <mxPoint x="-10" y="390" as="sourcePoint" />
            <mxPoint x="-50" y="370" as="targetPoint" />
            <Array as="points">
              <mxPoint x="-30" y="390" />
              <mxPoint x="-50" y="390" />
            </Array>
          </mxGeometry>
        </mxCell>
        <mxCell id="9Fltv7OR4iHCxFBWcwns-17" value="" style="triangle;whiteSpace=wrap;html=1;rotation=-90;fillColor=#130101;" parent="1" vertex="1">
          <mxGeometry x="-60" y="350" width="20" height="30" as="geometry" />
        </mxCell>
        <mxCell id="9Fltv7OR4iHCxFBWcwns-20" value="" style="triangle;whiteSpace=wrap;html=1;rotation=-90;fillColor=#130101;" parent="1" vertex="1">
          <mxGeometry x="-270" y="170" width="20" height="30" as="geometry" />
        </mxCell>
        <mxCell id="AuDMi6Rb6Y7opnjcRL28-1" value="Tener" style="shape=rhombus;perimeter=rhombusPerimeter;whiteSpace=wrap;html=1;align=center;" parent="1" vertex="1">
          <mxGeometry x="100" y="440" width="120" height="60" as="geometry" />
        </mxCell>
        <mxCell id="AuDMi6Rb6Y7opnjcRL28-3" value="Revista" style="whiteSpace=wrap;html=1;align=center;" parent="1" vertex="1">
          <mxGeometry x="110" y="558" width="100" height="40" as="geometry" />
        </mxCell>
        <mxCell id="AuDMi6Rb6Y7opnjcRL28-4" value="Nombre" style="ellipse;whiteSpace=wrap;html=1;align=center;" parent="1" vertex="1">
          <mxGeometry x="-38" y="502" width="100" height="40" as="geometry" />
        </mxCell>
        <mxCell id="AuDMi6Rb6Y7opnjcRL28-5" value="&lt;u&gt;NÃºmero&lt;/u&gt;" style="ellipse;whiteSpace=wrap;html=1;align=center;" parent="1" vertex="1">
          <mxGeometry x="-25" y="554" width="100" height="40" as="geometry" />
        </mxCell>
        <mxCell id="AuDMi6Rb6Y7opnjcRL28-6" value="aÃ±o" style="ellipse;whiteSpace=wrap;html=1;align=center;" parent="1" vertex="1">
          <mxGeometry x="40" y="615" width="100" height="40" as="geometry" />
        </mxCell>
        <mxCell id="AuDMi6Rb6Y7opnjcRL28-7" value="mes" style="ellipse;whiteSpace=wrap;html=1;align=center;" parent="1" vertex="1">
          <mxGeometry x="158" y="606" width="100" height="40" as="geometry" />
        </mxCell>
        <mxCell id="AuDMi6Rb6Y7opnjcRL28-8" value="editorial" style="ellipse;whiteSpace=wrap;html=1;align=center;" parent="1" vertex="1">
          <mxGeometry x="234" y="566" width="100" height="40" as="geometry" />
        </mxCell>
        <mxCell id="AuDMi6Rb6Y7opnjcRL28-9" value="volumen" style="ellipse;whiteSpace=wrap;html=1;align=center;" parent="1" vertex="1">
          <mxGeometry x="240" y="518" width="100" height="40" as="geometry" />
        </mxCell>
        <mxCell id="AuDMi6Rb6Y7opnjcRL28-10" value="Pertenecer" style="shape=rhombus;perimeter=rhombusPerimeter;whiteSpace=wrap;html=1;align=center;" parent="1" vertex="1">
          <mxGeometry x="375" y="468" width="120" height="60" as="geometry" />
        </mxCell>
        <mxCell id="AuDMi6Rb6Y7opnjcRL28-11" value="" style="endArrow=none;html=1;rounded=0;exitX=1;exitY=0.675;exitDx=0;exitDy=0;exitPerimeter=0;entryX=0;entryY=0.25;entryDx=0;entryDy=0;" parent="1" source="AuDMi6Rb6Y7opnjcRL28-4" target="AuDMi6Rb6Y7opnjcRL28-3" edge="1">
          <mxGeometry relative="1" as="geometry">
            <mxPoint x="115" y="517" as="sourcePoint" />
            <mxPoint x="275" y="517" as="targetPoint" />
          </mxGeometry>
        </mxCell>
        <mxCell id="AuDMi6Rb6Y7opnjcRL28-12" value="" style="endArrow=none;html=1;rounded=0;exitX=1;exitY=0.5;exitDx=0;exitDy=0;entryX=0;entryY=0.75;entryDx=0;entryDy=0;" parent="1" source="AuDMi6Rb6Y7opnjcRL28-5" target="AuDMi6Rb6Y7opnjcRL28-3" edge="1">
          <mxGeometry relative="1" as="geometry">
            <mxPoint x="115" y="517" as="sourcePoint" />
            <mxPoint x="275" y="517" as="targetPoint" />
          </mxGeometry>
        </mxCell>
        <mxCell id="AuDMi6Rb6Y7opnjcRL28-13" value="" style="endArrow=none;html=1;rounded=0;exitX=0.5;exitY=0;exitDx=0;exitDy=0;entryX=0.25;entryY=1;entryDx=0;entryDy=0;" parent="1" source="AuDMi6Rb6Y7opnjcRL28-6" target="AuDMi6Rb6Y7opnjcRL28-3" edge="1">
          <mxGeometry relative="1" as="geometry">
            <mxPoint x="115" y="517" as="sourcePoint" />
            <mxPoint x="275" y="517" as="targetPoint" />
          </mxGeometry>
        </mxCell>
        <mxCell id="AuDMi6Rb6Y7opnjcRL28-14" value="" style="endArrow=none;html=1;rounded=0;exitX=0.5;exitY=1;exitDx=0;exitDy=0;entryX=0.324;entryY=0.055;entryDx=0;entryDy=0;entryPerimeter=0;" parent="1" source="AuDMi6Rb6Y7opnjcRL28-3" target="AuDMi6Rb6Y7opnjcRL28-7" edge="1">
          <mxGeometry relative="1" as="geometry">
            <mxPoint x="115" y="517" as="sourcePoint" />
            <mxPoint x="275" y="517" as="targetPoint" />
          </mxGeometry>
        </mxCell>
        <mxCell id="AuDMi6Rb6Y7opnjcRL28-15" value="" style="endArrow=none;html=1;rounded=0;exitX=1;exitY=0.75;exitDx=0;exitDy=0;" parent="1" source="AuDMi6Rb6Y7opnjcRL28-3" target="AuDMi6Rb6Y7opnjcRL28-8" edge="1">
          <mxGeometry relative="1" as="geometry">
            <mxPoint x="115" y="517" as="sourcePoint" />
            <mxPoint x="275" y="517" as="targetPoint" />
          </mxGeometry>
        </mxCell>
        <mxCell id="AuDMi6Rb6Y7opnjcRL28-16" value="" style="endArrow=none;html=1;rounded=0;exitX=1;exitY=0.25;exitDx=0;exitDy=0;entryX=0;entryY=0.5;entryDx=0;entryDy=0;" parent="1" source="AuDMi6Rb6Y7opnjcRL28-3" target="AuDMi6Rb6Y7opnjcRL28-9" edge="1">
          <mxGeometry relative="1" as="geometry">
            <mxPoint x="115" y="517" as="sourcePoint" />
            <mxPoint x="275" y="517" as="targetPoint" />
          </mxGeometry>
        </mxCell>
        <mxCell id="AuDMi6Rb6Y7opnjcRL28-17" value="" style="endArrow=none;html=1;rounded=0;exitX=0.75;exitY=0;exitDx=0;exitDy=0;entryX=0;entryY=0.5;entryDx=0;entryDy=0;shape=link;" parent="1" source="AuDMi6Rb6Y7opnjcRL28-3" target="AuDMi6Rb6Y7opnjcRL28-10" edge="1">
          <mxGeometry relative="1" as="geometry">
            <mxPoint x="115" y="517" as="sourcePoint" />
            <mxPoint x="275" y="517" as="targetPoint" />
            <Array as="points">
              <mxPoint x="185" y="499" />
            </Array>
          </mxGeometry>
        </mxCell>
        <mxCell id="AuDMi6Rb6Y7opnjcRL28-18" value="" style="endArrow=none;html=1;rounded=0;exitX=0.836;exitY=1.015;exitDx=0;exitDy=0;entryX=0.5;entryY=0;entryDx=0;entryDy=0;exitPerimeter=0;shape=link;" parent="1" source="weiZbGKPLra64Cymewj_-71" target="AuDMi6Rb6Y7opnjcRL28-10" edge="1">
          <mxGeometry relative="1" as="geometry">
            <mxPoint x="115" y="517" as="sourcePoint" />
            <mxPoint x="275" y="517" as="targetPoint" />
          </mxGeometry>
        </mxCell>
        <mxCell id="lnsZPlXlzE1J45Q7I_3A-3" value="" style="endArrow=classic;html=1;rounded=0;exitX=0.5;exitY=1;exitDx=0;exitDy=0;shape=link;" parent="1" source="AuDMi6Rb6Y7opnjcRL28-1" target="lnsZPlXlzE1J45Q7I_3A-2" edge="1">
          <mxGeometry width="50" height="50" relative="1" as="geometry">
            <mxPoint x="160" y="500" as="sourcePoint" />
            <mxPoint x="160" y="558" as="targetPoint" />
          </mxGeometry>
        </mxCell>
        <mxCell id="lnsZPlXlzE1J45Q7I_3A-2" value="" style="triangle;whiteSpace=wrap;html=1;rotation=90;fillColor=#130101;" parent="1" vertex="1">
          <mxGeometry x="150" y="535" width="20" height="30" as="geometry" />
        </mxCell>
        <mxCell id="hCBXbbW0wOnlkIM-MtPt-2" style="edgeStyle=orthogonalEdgeStyle;rounded=0;orthogonalLoop=1;jettySize=auto;html=1;exitX=1;exitY=0.5;exitDx=0;exitDy=0;entryX=0.25;entryY=0;entryDx=0;entryDy=0;endArrow=none;endFill=0;" edge="1" parent="1" source="hCBXbbW0wOnlkIM-MtPt-1" target="weiZbGKPLra64Cymewj_-31">
          <mxGeometry relative="1" as="geometry" />
        </mxCell>
        <mxCell id="hCBXbbW0wOnlkIM-MtPt-1" value="NumeroRevista" style="ellipse;whiteSpace=wrap;html=1;align=center;" vertex="1" parent="1">
          <mxGeometry x="72" y="313" width="100" height="40" as="geometry" />
        </mxCell>
      </root>
    </mxGraphModel>
  </diagram>
</mxfile>
